<?xml version="1.0" encoding="UTF-8"?>
<!DOCTYPE svg PUBLIC "-//W3C//DTD SVG 1.1//EN" "http://www.w3.org/Graphics/SVG/1.1/DTD/svg11.dtd">
<!-- Creator: CorelDRAW 2019 (64-Bit) -->
<svg xmlns="http://www.w3.org/2000/svg" xml:space="preserve" width="676px" height="480px" version="1.1" style="shape-rendering:geometricPrecision; text-rendering:geometricPrecision; image-rendering:optimizeQuality; fill-rule:evenodd; clip-rule:evenodd"
viewBox="0 0 676 480.04"
 xmlns:xlink="http://www.w3.org/1999/xlink"
 xmlns:xodm="http://www.corel.com/coreldraw/odm/2003">
 <defs>
  <style type="text/css">
   <![CDATA[
    .fil7 {fill:#FEFEFE}
    .fil5 {fill:#FCD066}
    .fil4 {fill:#FDF8B4}
    .fil6 {fill:#EEEFEE}
    .fil2 {fill:#89C45F}
    .fil1 {fill:#5FB74E}
    .fil0 {fill:#4D4C4B}
    .fil8 {fill:#3CAF41}
    .fil3 {fill:#4A9E4B}
   ]]>
  </style>
 </defs>
 <g id="Layer_x0020_1">
  <metadata id="CorelCorpID_0Corel-Layer"/>
  <g id="_2140074538048">
   <path class="fil0" d="M338.06 68.44c13.92,-6.96 30.81,-10.75 46.27,-12.09l17.36 -1.51c19.03,-1.64 38.07,-0.64 57.11,-0.64l10.45 0 0 10.45c0,46.37 0,92.76 0,139.14l0 5.33c0,47.88 -39.15,87.03 -87.05,87.03l-175.45 0 0 -241.95 10.44 0c19.07,0 38.04,-1.25 57.1,0.23l17.37 1.31c16.49,1.24 31.59,5.25 46.4,12.7z"/>
   <path class="fil1" d="M217.19 64.65l0 119.19 0 19.95 0 5.33 0 76.6 76.58 0 12.04 0 76.39 0c42.14,0 76.6,-34.48 76.6,-76.6l0 -5.33c0,-46.11 0,-91.09 0,-139.14 -18.3,0 -37.64,-0.45 -56.2,0.6l-17.37 1.5c-17,2.06 -34.2,6.03 -47.23,13.55 -14.07,-8.13 -29.41,-12.17 -47.13,-14.15l-17.37 -1.32c-18.94,-0.88 -38.36,-0.18 -56.31,-0.18z"/>
   <path class="fil2" d="M238.85 285.72l54.92 0 12.04 0 76.39 0c18.67,0 35.82,-6.77 49.13,-17.96 -15.55,-36.15 -51.49,-61.45 -93.34,-61.45 -48.48,0 -89.03,33.96 -99.14,79.41z"/>
   <path class="fil3" d="M338 285.72l45.1 -0.67c18.41,0 35.18,-6.5 48.24,-17.28 16.81,-13.9 27.46,-34.94 27.46,-58.65l0 -5.33c0,-46.11 0,-91.09 0,-139.14 -18.3,0 -37.64,-0.45 -56.2,0.6l-17.37 1.5c-17,2.06 -34.2,6.03 -47.23,13.55l0 205.42z"/>
   <path class="fil1" d="M338 285.72l44.48 0c18.67,0 35.54,-6.77 48.86,-17.95 -15.38,-35.75 -52.1,-60.89 -93.34,-61.44l0 79.39z"/>
   <path class="fil0" d="M402.6 58.01c-3.32,-32.6 -30.88,-58.01 -64.33,-58.01 -33.44,0 -60.98,25.19 -64.77,57.61l17.37 1.32c3.07,-23.41 23.02,-41.52 47.33,-41.52 24.3,0 44.43,18.41 47.03,42.1l17.37 -1.5z"/>
   <path class="fil0" d="M366.25 216.5c-7.57,8.01 -15.13,16.01 -22.69,24.03l-5.57 5.9 -5.56 -5.9c-7.56,-8 -15.12,-16.02 -22.69,-24.03l-3.91 -4.16 2.86 -4.93c6.07,-10.47 17.42,-16.1 29.3,-16.1 11.9,0 23.24,5.63 29.31,16.1l2.87 4.93 -3.92 4.16z"/>
   <path class="fil4" d="M360.68 211.25c-7.55,8.01 -15.13,16.01 -22.69,24.03 -7.56,-8.02 -15.12,-16.02 -22.69,-24.03 4.78,-8.23 13.75,-12.3 22.69,-12.29 8.95,-0.01 17.91,4.06 22.69,12.29z"/>
   <path class="fil5" d="M360.68 211.25c-7.55,8.01 -15.13,16.01 -22.69,24.03l0 -36.32c8.95,-0.01 17.91,4.06 22.69,12.29z"/>
   <path class="fil0" d="M281.3 94.78c33.89,0 61.38,27.5 61.38,61.37 0,33.89 -27.49,61.38 -61.38,61.38 -33.89,0 -61.37,-27.49 -61.37,-61.38 0,-33.87 27.48,-61.37 61.37,-61.37z"/>
   <path class="fil6" d="M281.3 105.22c28.13,0 50.94,22.81 50.94,50.93 0,28.13 -22.81,50.94 -50.94,50.94 -28.14,0 -50.93,-22.81 -50.93,-50.94 0,-28.12 22.79,-50.93 50.93,-50.93z"/>
   <path class="fil7" d="M281.3 105.22c23.21,0 42.81,15.54 48.94,36.78 -6.13,21.23 -25.73,36.77 -48.94,36.77 -23.22,0 -42.79,-15.54 -48.93,-36.77 6.14,-21.24 25.71,-36.78 48.93,-36.78z"/>
   <path class="fil0" d="M394.69 94.78c33.89,0 61.37,27.5 61.37,61.37 0,33.89 -27.48,61.38 -61.37,61.38 -33.89,0 -61.38,-27.47 -61.38,-61.38 0,-33.87 27.49,-61.37 61.38,-61.37z"/>
   <path class="fil6" d="M394.69 105.22c28.12,0 50.93,22.81 50.93,50.93 0,28.13 -22.81,50.94 -50.93,50.94 -28.13,0 -50.93,-22.81 -50.93,-50.94 0,-28.12 22.8,-50.93 50.93,-50.93z"/>
   <path class="fil7" d="M394.69 105.22c23.21,0 42.8,15.54 48.93,36.78 -6.13,21.23 -25.72,36.77 -48.93,36.77 -23.22,0 -42.81,-15.54 -48.95,-36.77 6.14,-21.24 25.73,-36.78 48.95,-36.78z"/>
   <path class="fil0" d="M287.7 124.48c18.17,0 32.9,14.73 32.9,32.87 0,18.18 -14.73,32.91 -32.9,32.91 -18.17,0 -32.9,-14.73 -32.9,-32.91 0,-6.05 1.65,-11.72 4.51,-16.6 2.35,5.81 8.03,9.89 14.69,9.89 8.75,0 15.85,-7.08 15.85,-15.83 0,-3.94 -1.44,-7.54 -3.81,-10.3 0.55,-0.03 1.11,-0.03 1.66,-0.03z"/>
   <path class="fil0" d="M388.28 124.48c18.18,0 32.9,14.73 32.9,32.87 0,18.18 -14.72,32.91 -32.91,32.91 -18.15,0 -32.88,-14.73 -32.88,-32.91 0,-6.05 1.64,-11.72 4.49,-16.6 2.36,5.81 8.05,9.89 14.71,9.89 8.74,0 15.83,-7.08 15.83,-15.83 0,-3.94 -1.42,-7.54 -3.79,-10.3 0.55,-0.03 1.09,-0.03 1.65,-0.03z"/>
   <path class="fil8" d="M361.4 436.86c-7.34,7.45 -16.13,11.2 -26.32,11.2 -8.23,0 -15.23,-1.68 -22.38,-5.83l0 -17.09c5.75,3.89 12.97,7.61 20.09,7.61 14.86,0 23.71,-10.23 23.71,-24.72 0,-14.5 -9.16,-25.03 -24.01,-25.03 -6.65,0 -12.02,2.39 -16.23,7.17 -4.51,5.18 -6.83,12.59 -6.83,22.38l0 67.49 -1.12 0c-8.19,0 -14.83,-6.64 -14.83,-14.82l0 -55.2c0,-23.42 14.32,-42.33 38.93,-42.33 12.15,0 22.02,4.15 29.5,12.5 7.04,7.8 10.53,17.68 10.53,29.57 0,10.59 -3.68,19.64 -11.04,27.1zm-338.07 9.63c-15.59,0 -23.33,-10.61 -23.33,-25.42l0 -56.2c0,-8.19 6.64,-14.82 14.83,-14.82l1.11 0 0 19.22 26.94 0 0 15.31 -26.94 0 0 38.26c0,6.51 2.91,8.34 9.12,8.34l17.82 0 0 15.31 -19.55 0zm92.6 -9.77c-7.89,7.56 -17.35,11.34 -28.35,11.34 -10.89,0 -20.31,-3.79 -28.18,-11.34 -7.91,-7.58 -11.85,-17.22 -11.85,-28.84 0,-22.68 17.32,-40.19 40.03,-40.19 10.9,0 20.34,3.82 28.26,11.42 7.96,7.63 11.93,17.24 11.93,28.77 0,11.62 -3.95,21.26 -11.84,28.84zm74.53 -48.87c-2.34,3.92 -4.15,6.73 -5.43,8.43 -1.41,1.85 -2.79,3.32 -4.17,4.34 11.08,3.59 15.21,11.26 15.21,22.7l0 23.17 -1.12 0c-8.19,0 -14.83,-6.64 -14.83,-14.83l0 -6.77c0,-7.4 -3.31,-12.43 -11.16,-12.43l-14.48 0 0 34.03 -1.12 0c-8.19,0 -14.83,-6.64 -14.83,-14.83l0 -82.22c0,-8.19 6.64,-14.83 14.83,-14.83l1.12 0 0 62.38 4.71 0c5.18,0 8.58,-1.77 10.53,-5.12l13.4 -22.6 18.17 -0.02 -10.83 18.6zm82.3 48.87c-7.88,7.56 -17.35,11.34 -28.34,11.34 -10.9,0 -20.31,-3.79 -28.19,-11.34 -7.9,-7.58 -11.84,-17.22 -11.84,-28.84 0,-22.68 17.32,-40.19 40.03,-40.19 10.9,0 20.34,3.82 28.26,11.42 7.95,7.63 11.93,17.24 11.93,28.77 0,11.62 -3.95,21.26 -11.85,28.84zm-11.51 -46.81c-4.39,-4.6 -9.98,-6.91 -16.83,-6.91 -14.68,0 -23.46,10.7 -23.46,24.88 0,13.98 9,24.87 23.46,24.87 14.47,0 23.45,-10.89 23.45,-24.87 0,-7.43 -2.23,-13.38 -6.62,-17.97zm-156.84 0c-4.39,-4.6 -9.97,-6.91 -16.83,-6.91 -14.67,0 -23.45,10.7 -23.45,24.88 0,13.98 8.99,24.87 23.45,24.87 14.46,0 23.46,-10.89 23.46,-24.87 0,-7.43 -2.23,-13.38 -6.63,-17.97zm429.62 46.38c-7.32,7.85 -16.74,11.77 -28.16,11.77 -12.05,0 -21.87,-4.16 -29.34,-12.5 -7.03,-7.9 -10.53,-17.79 -10.53,-29.57 0,-20.87 16.11,-38.3 37.29,-38.3 8.18,0 15.28,1.72 22.45,5.66l0 17.26c-5.76,-3.9 -12.97,-7.61 -20.09,-7.61 -14.86,0 -23.7,10.22 -23.7,24.72 0,14.3 9.36,25.03 24,25.03 6.63,0 12.1,-2.49 16.46,-7.49 4.34,-4.98 6.6,-12.29 6.6,-22.11l0 -53.71c0,-8.19 6.64,-14.83 14.83,-14.83l1.11 0 0 71.06c0,12.52 -3.61,22.76 -10.92,30.62zm45.02 -76.19c-1.68,1.88 -4.08,2.74 -7.01,2.74 -5.47,0 -9.38,-4.04 -9.38,-9.47 0,-5.56 3.85,-9.31 9.38,-9.31 5.34,0 9.4,3.96 9.4,9.31 0,2.65 -0.78,4.92 -2.39,6.73zm81 43.05c0,-6.28 -2.37,-11.26 -7.16,-15.03 -4.3,-3.39 -9.68,-5.12 -16.21,-5.12 -14.43,0 -23.69,11.28 -23.69,25.19 0,13.39 9.81,24.56 23.54,24.56 9.54,0 14.65,-5.58 20.09,-12.52l0 20.03c-2.77,2.07 -5.96,4.34 -9.22,5.67 -3.44,1.43 -7.53,2.13 -12.28,2.13 -22.94,0 -38.08,-19.01 -38.08,-40.97 0,-11.28 3.51,-20.6 10.56,-27.88 7.48,-7.7 17.3,-11.52 29.31,-11.52 22.79,0 39.09,13.08 39.09,36.72l0 42.08 -1.12 0c-8.19,0 -14.83,-6.64 -14.83,-14.83l0 -28.51zm-218.24 -4.51c-2.02,-6.24 -4.55,-9.3 -10.36,-12.54 -13.81,-7.73 -27.41,-1.16 -33.74,12.48l44.1 0.06zm-12.17 49.19c-10.18,2.16 -20.18,0.49 -29.92,-4.95 -9.51,-5.32 -15.89,-13.22 -19.08,-23.65 -6.45,-21.11 6.77,-44.63 28.03,-50.33 10.54,-2.82 20.65,-1.54 30.25,3.83 15.95,8.91 21.76,22.7 20.75,40.47l-64.24 -0.14c0.95,7.25 5.44,12.92 11.76,16.45 6.4,3.58 12.29,4.43 17.75,2.74 6.06,-1.91 10.98,-6.85 14.98,-11.46l13.09 9.53c-5.34,9.56 -12.61,15.21 -23.37,17.51zm134.44 -78.56l15.94 0 0 77.22 -1.12 0c-8.18,0 -14.82,-6.64 -14.82,-14.83l0 -62.39z"/>
  </g>
 </g>
</svg>
